# Blender v2.77 (sub 0) OBJ File: 'untitled.blend'
# www.blender.org
mtllib tile.mtl
o Cube
v 0.958823 -0.217036 -0.982795
v 0.958823 -0.217036 1.017205
v -1.041177 -0.217036 1.017205
v -1.041176 -0.217036 -0.982795
v 0.958824 0.095668 -0.982794
v 0.958823 0.095668 1.017206
v -1.041177 0.095668 1.017205
v -1.041177 0.095668 -0.982795
v 0.958824 0.082030 -0.982794
v 0.958823 0.082030 1.017206
v -1.041177 0.082030 1.017205
v -1.041177 0.082030 -0.982795
v 0.834854 0.082030 -0.858824
v 0.834853 0.082030 0.893236
v -0.917207 0.082030 0.893235
v -0.917207 0.082030 -0.858825
v 0.958824 0.131030 -0.982794
v -1.041177 0.131030 -0.982795
v -0.917207 0.131030 -0.858825
v 0.834854 0.131030 -0.858824
v -1.041177 0.131030 1.017205
v -0.917207 0.131030 0.893235
v 0.958823 0.131030 1.017206
v 0.834853 0.131030 0.893236
vn 0.0000 -1.0000 0.0000
vn 1.0000 0.0000 0.0000
vn -0.0000 -0.0000 1.0000
vn -1.0000 -0.0000 -0.0000
vn 0.0000 0.0000 -1.0000
vn 0.0000 1.0000 0.0000
usemtl Material
s off
f 1//1 2//1 3//1 4//1
f 1//2 5//2 6//2 2//2
f 2//3 6//3 7//3 3//3
f 3//4 7//4 8//4 4//4
f 5//5 1//5 4//5 8//5
f 5//6 8//6 7//6 6//6
f 9//1 13//1 16//1 12//1
f 12//1 16//1 15//1 11//1
f 11//1 15//1 14//1 10//1
f 10//1 14//1 13//1 9//1
f 17//6 18//6 19//6 20//6
f 18//6 21//6 22//6 19//6
f 21//6 23//6 24//6 22//6
f 23//6 17//6 20//6 24//6
f 11//3 10//3 23//3 21//3
f 10//2 9//2 17//2 23//2
f 15//2 16//2 19//2 22//2
f 16//3 13//3 20//3 19//3
f 12//4 11//4 21//4 18//4
f 9//5 12//5 18//5 17//5
f 14//5 15//5 22//5 24//5
f 13//4 14//4 24//4 20//4
